<svg xmlns="http://www.w3.org/2000/svg" width="78" height="60" fill="none" viewBox="0 0 78 60"><g fill="#fbf6e6" clip-path="url(#a)"><path d="M29.9 13.3c.2 0 .9-.6 1-.7v-.4l.2-.3.1-.2q.4-.4.3-.6h-.1c-.4.2-.9 1.2-.9 1.4zm-.7-3.8.2-.1c.3-.3.8-1 .7-1.2zm.5 4.1v-.3l-.4.3zM31 7q-.7.4-.7 1.1.6-.4.8-1.2"/><path d="M48.8 12.5q.3-2.1-.1-4.2a7 7 0 0 0-2.1-4c-1.4-1.5-4-2.8-5.9-3.4h-.4L40 .7l-.4-.2-.5-.3c-2.2-.6-4.5-.2-6.5.2-2.8.6-4.4 1.6-6.5 2.8l-.5.3a19 19 0 0 0-7 9.8c-.6 1.7-1 3-2.3 4.5l-1 1.2-.8 1-.8.7c-.8.7-1.7 1.1-1.5 2.2q0 .4.3.7.5-.1 1-.5l.1-.1.2-.1q.3 0 .3-.6.8 0 1.2-.6l.3-.3 3.5-2.2.3-.2 1-.4 1.2-.8.7-.7.7-.2.6-.2v-.5h2.2l.4-.3.6-.3.8-.3 1.6-.7q.3-.3.7-.4 1-.2 1.2-1h.5v-.6h-.2q0 .3-.3.3l-.2.1-.4.4-1.3.8-1.8.7-1.6.5.7-1V14h.1l.3-.7h-.1l-.5.8q0 .4-.2.7l-.6.5q-.5.3-.7.8-.7-.3-1.7 0l-.1-.4v-.4l.2-1q.4-.6.1-1.3.5 0 .5-.3t.2-.3l-.2-.1-.2.1-.3.2q0-.7-.3-1 .1 1.3-.8 1.6v.2h.2v.1l-.2 1-.5 1q0-.6.2-1V14l.2-.8.6-2.8.1-.3.3-1 .5-1 .3-.3.2-.4q-.1-.7.7-.7v-.4l.5.3.3-.3q.3-.2.4-.7l.4.1q0-.6.2-.7l1.5-.6.4.2h.3v-.2h.3l.3-.4.6.1q.2-.5.7-.4h.3l.2-.2.3-.2 2.2-.3.9.2 1.2.2-.9-.6h.1q.8 0 1.4.2l.1.2h-.2v.3q0 .2.6.3h.4q1.2.3 2.2 1 .2 0 .3.2l.2.2h.4v.6l.4.3.1-.3q.4.1.3.5l-.1.3q-.1.7.4 1.4v.6c-.2 0-.2-.6-.3-.5L41 9.6v.6l.1.3-.2.1-.1.1-.2.3v.2l-.4.2-.4.3m-14.3 3.8-.2.3v-.1zm-2.6.7q.3.1.2.5h-.3zm-1.7.5c-.2.8-.3 1.3-1.2 1.6a1 1 0 0 1 .2-.9l.3-.3v-.4q0-.5.4-.7v.6zM37 3.4v-.2l.1.1zM40.8 5l-2-.9-1.2-.5h-.1l-.2-.1V3h.1q.4 0 .6.2l.3.2.6.2 1 .3s1 .5 1 .8zM35 1.3h-.3l-1 .3-1.5.1-.4-.1.4-.1q0-.6.6-.5l.3-.2.4.1q0 .2.2.2V.8h.7l.6.2.5-.3-.2.4zm6.3 1.6-.2-.1h-.4v-.2l-.4-.1-.7-.2-.6-.2h-.6l-.2-.2-.5-.2h-1.9l-.7-.2.5-.4V.6l1 .1V1l-.1.1.3.2h.2l.2-.3h.2l.4.4h.2l.5-.2.4.4h.2l.5.3h.5l.5.1c.2 0 .7.6 1 .4l.3.4.7.4.2.6.5.1.2.5.3.9.2.6-.3-.2v-.5q0-.3-.3-.4v-.1l-.5-.3-.3-.3q-.2-.1 0-.1l-.2-.4-.2.1z"/><path d="m24.7 12-.1.3.3-.1q.3-.3.2-.8zm9.7-2q-.2 0-.3.2l-.4.4q-.5.3-.5.9.9-.2 1.1-1.2zm-6 0q-.6.5-.8 1.1v.2l.1.3q.6-.1.5-.7v-.3l.2-.3.2-.3zm.4-.8h-.2v.2h.2zm-1.2.2h-.2v.3q0 .4-.2.7v.2l-.2.3q.9-.4.6-1.5M26.3 11h-.1l-.2.3v.8l-.1.2.1.2h.1l.1-.4.1-.4v-.1H26v-.2q.3-.2.2-.4m6.5.9.2-.1q.2-.5-.2-.7h-.1l-.5.7q-.5.4-.5.8.6 0 .8-.5l.2-.1zm-8.4 1.6.2-1-.4.3V12q.4-.7-.1-1v.6q0 1.1.3 1.8m0 1.3-.3.8h.1c.3-.2.6-1 .5-1.2zm1-2.4-.3.1h-.2v.4q.8-.4 1-1.2h-.3l-.2.4zm9.2 29v.3l1-.2.2-.1V41l.3-.4q.2 0 .2-.3v.3l.3-.1V40h.3v-1.3h.2v-1.1l-.1.7-.3.4-.1 1q-.2.1-.2.3-.5-.4-.3-1 0-.3-.2-.2v.5l-.1.3v.4l-.5-.1c-.2.1 0 .5-.2.8q-.2.1-.2.5l-.1.1zM72.3 54l-1.7-.2v.3l-.3-.1v-.3h-.5v.4q-.3 0-.4-.3l-.3.1h-.3v.2h-.3l-.2-.2q-.4 0-.7-.2h.4l.1-.1q.3.2.4-.1l-1.5-.1v.2q-.1.3-.5.2l-.1-.2h-.8v-.2H65c0-.3.4 0 .5-.2l.5.2c0-.4-.4-.2-.7-.3h-.8V53H64l-.6-.5-1.2-1-1.8-1.9s-.1-.4-.4-.3V49l-.3-.2v-.2h-.2c0-.5-.7-.9-.8-1.2l-.7-.7c-.2-.4-1-1-1.3-1.4l-2-2.2h-.3s-.6-.9-.9-1l-.2-.2q-.2 0-.3-.2v.3l.2.4q.2.2.5.2l.3.6h.4l.4.6v.5l.3-.2.4.5c.2.1.5.4 0 .4l.1.2v.1l-.4-.4-4.2-4-.3-.1-.1-.3q0 .2.4 0l.1.1h.3l.3.4c.2.2.3.1.5.5l.2.2c.5-.3-.2-.9-.5-1v-.1q-1-.4-1.7-.9l-.4.1v-.3l-.5-.2h-.6l-.1-.1h-.2l-.2-.1s-2.3-.3-2.3 0l-.4.1h-1.7l-1 .3h-.3l-.4.2-.5.2-1.3.6-1.3 1.1c-.5.2-3.5 3.3-4.7 4.6l-1.7 2.3c-.2.4-1.4 1-1.6 1.5l-.9.9c-.4.5-1.5 1.2-1.7 1.8-.1.3-2.4 2.1-2.7 2.4h-.2c-.5.7-1.3 1-2.9 1.7l-.4.4.2.2h.3l-.2.2v.7h.7q.1.3.5.1l.3.2.1-.2h.2v.2q.3.1.5-.1l.5.1.8-.1.5-.2.5.2.4-.4v-.3.3l.4.1v-.8q.3-.1.4-.4l.2.2q-.5.3-.2.7 0 .2.3.3l.1-.3v-.3l.4-.2v-.2l.1-.1q0-.6.3-1 .2 0 .2-.2h.2q0 .4-.3.5v.6l-.2.6.3-.2v-.1l.3-.2v-.5h.3l-.1.3.2.1.2-.5.2.2v-.4h.1v-1.1q.2-.2.2.1v.6l.1 1 .4-.7a.2.2 0 0 0 .3.2c.1 0 .7-.8 1-.9v-1q.3.1.2.4v.7c.2 0 0-.7.1-.7h.3l.3-.2q0-.4.3-.3l.2-.4q.1.2 0 .4l.2.1q-.2.5.2.6V54q.3-.5.3-1.1v-.3l.3.2.2-.4-.2-.3.2-.3.1.2.2-.3-.1-.3v-.6l.2.1h.1v-.8l.3-.3q0-.3.2-.5h.2l.1-.7h.3l-.1-.3v-.2l.5-.4.1-.3q.2 0 .2-.2l.2.4h.1l.3-.5v-.5l.3-.5c.3.1 0 .5.4.5v-.9c.6.2.6-.3 1-.6l.3.2V45l.7-.3v.3l.2-.3h.2c.3.1.5-.3.8-.3l.2.2-.3.2q.3 0 .3.2l.1.3v-.7c0-.2.6-.1.8 0l.5.1-.6.9-.2.4-.2-.1c0-.1.3-.6 0-.6l-.2.3-.6 1.6c0 .3-.6.5-.6 1l-.4.1q-.1.2.2.2l.3-.1.7-.3V48l-.4.2c-.2-.2.2-.2.3-.3l.2-.5.6-.3q0-.2.3-.1l.3-1 .4-1.2q.6 0 .8.3h.7l.3.3h.3v-.2l.5.1-.2.4-.2-.3.2.3-.1.3-.1.6-.2.2-.3 1.1-.2.2v.3h.3l.1-.3v-.4l.3-.3-.1-.1.1-.3h.5l.2-.5h.3q.2 0 .1.3t-.2 0q0 .3-.4.5l-.2.5-.1.1h-.2l-.2.3v.5h.3v-.2l.2-.1v.2h.1q.3-.2.2-.5h.3q0-.3.2-.4l.1-.5.1-.4q.3 0 .2.3.6 0 .7.7l-.1.1v.1l-.4.3-.1.6h.1l.3-.6.2.1c.2-.1 0-.5.4-.5v-.4h-.2c-.2-.1-.5-.6 0-.5 0 0 .3.5.2.6q.4 0 .6.4l-.3.1.2.5.1-.1v-.3h.3v.2l.8.8 3.2 3.3.7.8V53l1.2 1.1q.5.3.5 1 .3-.1.5.2h.2v.2c0 .2.6.4.6.6v.5h.2v.2q.3 0 .4.3l.2-.2v.2l.4.1s.4.4.4 0c0-.2-.3 0-.4-.3v-.1c.4-.1.6.3 1 .3q0 .3-.4.2v.4q.1.2.2.1l.7.5h.3v-.1l.1.4q.3-.1.5-.4l.1.4h.2q.3-.1.1-.4c.5 0 .3.2.3.4l.3.3h.2l.3.2q.2-.3.6-.3v-.4l.2-.3h.3l-.1.3q-.4.1-.2.4l.4-.1.2-.3-.1-.3c.4.2.6-.2.7-.2s.4 0 .3.2l-.7.2v.4q.4-.1.7-.5l.2.3-.2.2.4-.1.2-.2h-.1l.3-.3v-.3q.3 0 .2.1v.3l.6-.2s-.5.5-.2.7l.4-.4-.1-.4.2-.2.7-.3v.4H67v.3c-.1.4.2 0 .3 0h.5v-.6h.3l-.2.3q.3.1.4-.2l.4.2v-.1h.2v.1l.4-.4-.1-.1.4.1-.1-.2v-.4q.4 0 .4.3.4-.1.4-.5h.5v-.1h.3v-.6.4h.6v-.4c.3.2.4-.2.5-.3l-.3-.1v-.3l.6-.2.6-.6c0-.2-.7-.3-.8-.3m-40.7 2-.4.2c.3-.3 0-1 .5-1zm10.5-12.6v.4h-.6v-.4l.3.1.2-.4-.4-.1v-.4q.3 0 .3.3l.7-.4.2.5h-.3l-.2-.1q-.2.2-.2.5m5.1 1.2H47v.2l-.1.3q0-.2-.3-.1l-.2-.2H46v-.3h-.6l-.2-.2-1.8-.3-.4-.1h-.6l.1-.8.3.3h.3l.4-.2-.2-.5.3-.3v1l-.2.1v.2l.5-.1.1.3v-.2h.3v-.3h.3l.2.2v-.9l.4.1q0 .4.4.3V43h.6l.4.2.3.1v.7c-.5-.1-.2.3 0 .3h.3l.1-.3zm13.5 6.2-.6-.2-.8-.8-1-1.3c-.3-.4-1.2-1.3-1.3-1.6l-.6-.5q0-.2-.3-.2l-.3-.6.1-.5 1.1 1.2.2.1.1.3c.3 0 1 .6 1 .9l1 1.1v.1l.7 1q.5.4.7 1m-7.9-14.3.1.3 2 1.6v-.2q-.3 0-.2-.5h.4q0 .4.5.4l-.3-.6.2-.6-.1-.1q.1-.5-.4-.7l.2.8-.3-.3v1l-.3-.5.2-.5-.1-.9q-.2 0-.3-.2H54q.2.3 0 .6v.2q.2.3 0 .5l-.3-.3v-.8l-.3-.3c-.1-.2.4 0 .3-.3l-.8-.3v.3l.1.4.5.5q-.1.4 0 .8v.5l-.3-.4zm1.5-.3q.4 0 .2.3v.5h-.2z"/><path d="M44.3 46.2v-.7l-.3.2-.1.8c0 .2-.7 1.2-.9 1.4l-.2.6h.5l.3-1.3q.6-.3.6-.9m.4.9v-1.1l-.3.2v1.3q.3 0 .3-.4m-2.8.2-.2-.3-.1.3-.9 1-.3.8H40v.2h.2v.1l.3-.3.3-.5.2-.4.5-.8zM14.7 35l.2-.3-.4.5q.2 0 .2-.2m30 12.9q-.1.5-.4.9h.2l.5.3q0-.4-.3-.3v-.2q.3-.4.3-.7l.2-.3zm2.4.8H47zm1.8-.6V48h-.2v.2zm-10.2 1-.2-.2v.3l-.7 1.2-.2.8-.2.1v.1h.1v.2l.4-.4v-.6l.3-.5.3-.8zM55 30.4q0-.2-.2-.3h-.2zm-9.4 13.2q-.3-.3-.8-.3 0 .5.4.4h.2v.2h.6l-.2-.4zm16.8-9.3-.5-.6-.5-.7.1.4.5.7zm-1-1.4-.2-.4a.3.3 0 0 0-.4-.2l.2.4q0 .3.3.2"/><path d="m55.7 29 .3.3h.3c.2 0 .3.5.7.3l.2.3.5.2v.3q.4 0 .5.3l1 .9c.2 0 .3.6.7.5 0 .4.7.7.8 1.2h.2c.4 1 1.3 1.8 1.8 2.7q0 .3.3.4v-.6q-.1-.3-.4-.4l-1.4-2q-1-1.3-2.2-2.3l-.5-.7.1-.2.5.3q.2.4.6.6.1.3.5.3c0-.4-.6-.4-.8-.8l-.4-.4-.5-.4-.2.4q-.3 0-.4-.2L56 28.7l-.5-.2h-.2l-.1.2q.1.3.4.3m1.4 0-.1-.3h-.1l-.4-.3-1.9-1h-.2l-.6-.3.3.4q1.4.5 2.6 1.3zm7 4.9q.2.1.2.6l.7.8-.4-1.2-.3-.2-.3-.7-.4-.7-.6-.1.3.5.7 1m-3-3.4-.1.6.2.2 1 1 .4.2c.6 1 2.3 3 2.3 4.2q0 .2.2.1V36l-1-1.8-1.1-1.5-.4-.5-1.1-1.3-.4-.6q0-.2-.2-.2v-.2h-.3v.2zM70.1 44l.3.4v-.5l-.5-.8q-.3 0 0 .3t.2.6"/><path d="m67.6 42.3.1.2.1.5.4-.2-.1.2q0 .5.3.8l.3.6.5.4c0-.2-.3-.6 0-.8l.1.6.2-.4.2.1v.2l.4.1v-.4q-.2-.6-.8-.8V43h-.1v-1.3l-.2-.1-.1.1v.3l-.4-.7-.1.2.2.6v.6l.3-.3v1l-.2-.4h-.3v-.7l-.2-.4-.4-.3c0-.1 0-.9-.3-.8s0 .4 0 .5zM65 38.2v.5q-.1.3.2.5l.1.5.5.8.2.1V40l.3.5v-.7h-.4l-.2-.4.2-.2h-.6v-1zm-2-2.7.2.5.5.5-.3-.6v-.3l-.4-.4q0-.2-.3-.3 0 .4.3.6m-10.4-9.2.3-1h-.2l-.3.5.2-.4q-.1-.3-.3 0v.7zm-1-.9c0 .3-.2.8.3.6q.3-.1.2-.6l-.6-.3c-.3.1 0 .2 0 .3m-.2.2-.2-.4.2-.1q-.6 0-.5.7.3 0 .5-.2m1.8.7q.4 0 .4-.2.2 0 0 .2l.1.2h.6l.2-.2v.4h.2l.6-.2v.2q.3 0 .2.3l.6.2v-.4h-.6v-.4L55 26l-1.2-.4-.6-.3-.2.3v.2l.1.3m2.1 12.4q0-.2-.2-.3l-.1.2.6.7v-.3zm1.6-11v.2l.5-.1q0 .3.3.2 1.2.7 2.2 1.7l.1.1h.3l-.5-.6q-1.5-1.2-3-2l-.3-.1v.4h.4zM37.7 50.4v-.5l.5-.8.1-.2q.1-.2-.2-.3l-.2.5c-.2.2 0 .5-.4.5v.2H37v.3l-.3 1-.2.4c0 .1-.2 0-.4.5l-.4.2-.1 1.1v.2l.9-.7.2-.6.1-.3.2.3v-.6l.3-.8v-.3l.3.1zm23-18.3-.2-.4h-.2q0 .2.4.4M40.2 48.5l.2-1q0-.7.2-1.3v-.4l-.2.2q-.2.8-.5 1.2v.4h-.3c0-.1.3-.7-.1-.6l-.1.3-.2 1.7c-.1.3-.6.6-.5 1q-.1.2-.4.3c-.3.1.2.2.3.2l.3-.3.6-.3v-.3l-.4.4q-.1-.3.2-.4l.2-.5.4-.4q0-.2.3-.3m-12.7-21h.2v-.5l.4.2v-.3h.2v-.4H28l-.7.6v.6q0 .4-.2.4l-.2.5-.3.4q.4 0 .4-.2h.2v-.1l.2-.2.1-.7.1-.3m-8.5.2v-1.1q.3 0 .3-.3l-.4.4-.2.4v.2l.1.6q.3 0 .2-.3m2.5-2.6.3-.3h-.3l-.5.3v.2q-.3-.1-.3.2l.6-.2v-.2zm13.2-5.6.1-.2-.4-.2q0 .2.3.4"/><path d="M40.5 10.7v.4q-.6.2-1 .6v.4l-.3.3-.8.3-.2.2.1.4c.1.3-.4.4-.3.7l-.2.2-.4.2-.1.3H37v.2l-.8.5v.3h-.5l-.2.7-.4-.3q.2.4-.2.5l-.4.2-.5.2.2.4h-.5l-.1.3v-.2h-.4c0 .4-.6.4-.8.7v.1q.2.3 0 .5l-.3-.3-.2.1h-.1l-.2.2h-.2v.2l-.4.2.1.3H31v-.3h-.1l-.3.3q-.4.4-.9.3v.2H29l.1.3-.2.2-.2.1-.8.7-1 .1h-.2q-.1 0 0 .2v.2h-.2l-.2.5h-.1l-.7.3q.1.6-.5.5v.2q-.5-.1-.8.4-.4 0-.7.3l-.4.3-.9.3-.3.4-.2.2h-.2v.7l-.4.2q-.1-.1 0-.4h-.3v.1q-.3 0-.5.2v.3l-.3-.2v-.3c0-.1-.7.4 0 .3q-.2.4.1.5v.2c-.1 0-.3-.3-.4 0q0 .2.2.3l-.6.5q-.1.2.1.2l.2.2-.3.2-.8-.2q0 .2-.3.2c.2-.3.9-.4.4-1q-.1.2-.4.3v.2l-.6.5c-.3 0 0-.4 0-.5l.5-.3v-.2c-.2-.1-.5.3-.6.3q-.3-.1-.6.2l.2.2q-.4.1-.6.4h-.3l-.3.7q-.4 0-.7.3h.3c.2 0 .2.4.4.3v.4l-.2-.2h-.1l-.2.3H15v-.4c-.5-.2-.5.1-.8.3H14l-.6.5.1.4q-.3.5-.4 0v-.4l-.1.3h-.7v.5a1 1 0 0 0-.8.7h-.4v.2l-.3.2c.3.2 0 .6 0 .6l.3.3q-.5 0-.6-.4c.4-.4-.1-.4-.2-.1-.2.4-.2.2-.6.4h-.1v.1q-.3.3-.4.7l-.4-.1v.4q-1 .8-1.6 1.7v.2q-.2-.2-.4 0v.2h-.1q-.4.4-.5.8l-.3.3q-.1.4-.4.7-.5.4-.7 1l-.4 1.5v.1q-.3.3-.3.8H4l-.2-.2.3-.4q-.2-.2-.2-.5c.4 0 .4-.8 0-.7l-.3.6-.3.2v.7h-.6v.3l-.8 1.6-.3.7-.3.3v.7l-.1.1-.1 1.5v2.8c.3 1.4 1 2.6 1 2.7q.3 0 .5.2l.5.8.4.3c0 .2-.2.9 0 1q.6 0 .8.7h.2q.3.6 1.1 1 .3.4.5.4v.2l.5.2-.1.3h.3l.2.3-.4-.2.2.3 1.5.7.8.3q.3-.5.8-.3V58v.1-.3q.2.1.2.4l.1-.3v.2h.2l.2.3q.4-.1.5-.6h.2l.3.1.2-.2.1.1v.1q0 .3.2 0 0 .4.2.2l-.1-.2h.2v.4c.3.3.4-.8.7-.2 0-.2-.2 0-.2-.4l.4.5c.2.1 0-.5.3-.4v-.6l.1.6v-.1.2l.2.2v-.3h.4l-.1-.2c.3.1 0-.2.2-.3l.1.3.2.3.3.2.5-.2v-.3l.2.1-.1-.3v-.1l.2-.1-.2-.1h.4l.1-.1.2.3h.3v-.4.1a.1.1 0 0 0 .2 0l.3-.4H17l.1-.2.3.3v.1l.2-.3c.2 0 0-.7.1-.7l.2.5v-.1l.1-.2h.8l.1-.6.1-.1h.5l.2-.1h.1l.2-.3.3-.3h.4V54l.5.1 1-.5.1-.1.5-.3.1-.1.8-.6s.4 0 .1-.5q.3 0 .2.2.3-.1.2-.5l.4-.2.2-.1v-.7l.7.1q.3 0 .2-.6l.1-.2.8-.4-.2-.2.1-.1q.5.2.5 0V49c.3 0 .3-.4.7-.2l.2-.1.4-.4V48q.3 0 .5-.3c.1 0 .5 0 .1-.5q.3.2.2 0v-.3l.1.2v-.4l.2-.2.1.2.8-.7c.2-.1.3-.6.2-.6l.2-.4v-.2l.2-.3q0 .2.1 0v.1c.7.3 1.2-1.6 1.8-1.5q.2 0 0-.4l.2.3v-.4c0-.3.6.4.5-.1l-.1-.2s.1-.3.3 0v-.2.2-.2h.2l.4.2-.1-.6v-.1l.3-.4v-.4c0-.2.5-.6.6-1v-.3l.2-.1h.1l.2-.5-.1-.1v-.4l.2.1q.2 0 .2-.3l.2-.3.5-.3h.2l.2-.1v-1.2l.3.2-.1.6.4-.3.1-1.5-.2-.4v.4h-.2v-.6l.4-.3c.1-.2-.1-.9.3-.8v.3l.1.2q-.2.4.1.7v.3c-.5 0-.3.8.2.4q.3-.3.3-.6v-.7h.2l-.1-.6.3.4v.4l-.1.1v1.4l-.4-.2.1.6-.3.3A2 2 0 0 0 38 38l-.1.1h-.1v.2l-.3.2q0 .5-.2.8.2.4.5 0V39l.1-.3h.3q-.1-.6.5-.4v-.4q.2-.4 0-.9l.2-.1v-.6q.3-.2.3.1v.6H39q0 .5.2.5V37l.4-.7v-1.1h.4l-.1-.1.5-.5.3.2v.4l-.2.2c-.1-.2-.4.1-.6 0v1.3l-.1.3-.5.3v.7l.3-.1v-.1h.3v-.3q.3-.4.2-.7l.3-.4h.5V36l.4-.3-.2.4v.5q1.2-1.1 2.7-2h.5v-.2l.1-.2.2.2V34c0-.1.8-.3.8 0l.3-.1h.4v.5h.3V34q.3 0 .4.2l.3-.1h.5q0 .4.3.3l.3-.1q.4.3 1 .3l1.5.7.3.2.4.2-.1-.4h.2l.1.2v.2l.7.6.3.3V36l-.1-.1v-.4q-.3-.4-.9-.6h-.1l-.4-.4h-.6l.3-.5.4.4h.4l.1-.2.1.5.6.2.3.2q0-.2-.2-.3v-.1l-.3-.5h-.5c-.2 0-.2-.5-.5-.4l-.3.2c-.1 0-.2-.6-.5-.5v.4l-.1.3-.1.2h-.3l-.1-.2h-.1l-.4-.2-.1-.4H49v.3l-.3-.2q.1-.4.3-.5v-.6l-.5.4v.6l-.1-.5-.3.3.1.1-.1.3h-.3v-.1H47l-.8-.1v-.2h-.8l-.4-.1-.1-.4h.4v-.3h-.2v-.5l.1-.2h.4v.2l.2-.2q.5 0 .7.3V32q.4 0 .4.4s.5-.3.6 0l.1-.1-.2-.1q.4-.3.8.2l.5-.1V32l.4.1.1-.3v1l.3-.2v-.3h.3q0 .2-.2.3l-.4.3v.7l.3-.2.2-.4.2-.3-.2 1h.3v-1l.3-.1v.2l.4-.3v.6l.4-.1v.2l.6.2q.3.1.4.4l.3-.2s0-.4.2-.2c.2 0 .1.6.3.6h.3l.2.2v.2l.7.2c.2.6 1 .7 1.1 1.3h.3v.2h.4c0 .6.8 1 1 1.5l.2.3c.4.3.3.5.8.9l.1.4v.3h.1l.3-.2v.3l.4.5.2-.4.2.4H59l.2.8-.4.7.2.5-.2-.2h-.2v-1h.2v-.5l-.3-.3-.1-.3q-.3.4-.1 1-.6-.1-.4-.7l.2-.4q-.4-.1-.3-.5l-.3.3v-.4q-.1-.4-.3-.5v-.5l-.5-.5-.3.1v-.2l-.2-.4q-.4.1-.4-.3l-.3-.4v1.2q.2.1.2-.2l.1-.2.4.6-.1.2-.3-.3-.3.6.2.4h.2c0 .3.5.4.5.6q0 .4-.2.5l.1.2.2-.2.2-.5-.1-.3h-.2l.4-.2.2.6-.2.2q.3.4.3 1h.2v-.4l.2-.3q.2.2 0 .4v.7l.4.4v.1l.4.4v.2l.2.2h.4v.2h.4l-.1.2q.3 0 .3-.4l-.3-.5.2-1q.4.2.6.6v.6c.3.1 0-.3 0-.4l.5.1v.4q.8.4 1.2 1.2l.5.6-.1.4.2.1.2-.1-.1.2q.1.5.6.8h.2c0 .3.4.4.3.7l-.4-.2-.6-.8-.8-.8v-.4l-.2-.4-.2.6H61v-1.2q-.3 0-.2.3h-.3l-.1-.1H60v-.5l-.6.6.2.4v.5q.2 0 0 .3a.3.3 0 0 0 .5-.1l-.4-.5.1-.3v.4q.5 0 .8.3l.4.6q.2.3.3.2.2.4.5.4v-.1h.2v.3l.2.4v.4H62l.4.5.6.5.7.5v.3l-.3-.3-1-.5V47l-.3-.2c-.2.5.4.6.6 1v.2q.5.2.3.3h.3v-.1l.9.3q0 .5.4.5.1.6.3.1l.3.2.2-.1v.2l.4.2v-.3h.3l-.2.3q.2 0 0 .3h.2l.1-.2h.3v.4l.3-.6h.2q0 .4.5.4l-.2.4.4-.2v-.4h.7q-.2.2.1.4l.3-.3c-.3-.5.1-.3.4 0l-.1.2.2-.1.2.1-.1.3h.4v-.7h.4v-.3h.5l-.2.4h.5l.1-.1v-.1h.2l.3.2-.1.2q-.5-.2-.8 0-.3-.2-.8 0 0 .3.3 0l.3.2.2-.1.3.3.1-.3h.7s.4-.2.4 0v.1l.7-.2v-.3l.3.1h.5q0-.2.3-.2v-.2l.4.1.6-.2q.1-.2.4-.3v-.5l.3.2.3-.1.3-.1.1-.4.2.2q.3-.2.3-.6l.3-.3h.3l.1-.2-.4-.5-.6-.1c-.3 0-.1.4-1 .1h-.8l-.1.3h-.5v-.2h-.6v-.2H73l-.4-.3h-.3v.4H72l.1-.4-.3-.3c-.2-.2-.9-.4-.9-.8h-.2l-.2-.2.2-.3-.3-.1v.7l.2.2.9.6.4.1c-.3.3-.4 0-.5 0l-.8-.3c0-.5-.7-.3-.6-.9q-.3 0-.4-.2-.2 0-.3.2.2.2.1.3l.3.3h.2l.3.3q0 .2-.1.1l-.4-.3h-.2L69 45c-.3-.4-1-.6-1-1.2q-.1-.6-.7-.5c0-.2.3 0 .2-.3l-.3-.1q0-.5-.2-.9l-.1.6v.4l-.2-.1v-1.5l-.1-.2-.2.1q-.2-.2-.1-.6-.7 0-.2.6l.4.8v.4H66q0-.5-.2-.7V41l-.2-.3-.3-.3.2.4v.5l-.4-1-.2.1-.3.1q0 .3-.1.2l-.3-.6v.4l.5.8v.2h.2l.2.8h-.3v.3l-.3-.5h.3v-.4l-.3.2h-.1l-.2-.9-.2.4h-.2l.1.2v.2l.3.5.5.6q0 .4.3.4l.3.5v.5l-.6-.7-.6-.7-.6-1.2c0-.1-.4-.2-.3-.5-.3-.1-.1.2-.4.2l-.1-.4q0-.6-.5-.7c0-.7-.5-.7-.7-1.5 0 0-.4-.5-.5-.4v-.7l.3-.1q.2.2-.1.3l.2.3h.3l.4.6.3.4q0 .5.3.6l.6 1 .4.4q.2-.2 0-.2l.1-.3v-.2l-.3-.4-.3-.3v-.5H63v.5q-.5-.4-.2-1.2-.5-.1-.5-.6l-.2-.5-.4-.5v-.4l-.3.1v.5l-.2-.1v-.7l-.1-.2v-.5c0-.2-.5-.4-.6-.6l-.3-.2v-.1l-.1-.2.1-.3.2.5v.1h.3c.3.1 1.7 2.4 1.8 2.8s0 .2.3.3l.4.8v.3q.3.3.4.7.2.1.2-.1v-1.2h-.2v.1h-.2v-.2l-.2-.6-.2.3q-.2-.1-.2-.4l-.2-.3.1-.4-.1-.2-.2.1q-.2-.2-.1-.5H62l-.3-.5q-.3-.1-.4-.5l.1-.3h-.3l-.3-.3c-.1-.6-.1-.3-.3-.5v-.2q-.2 0-.2-.3.3.1.3-.2l-.3.2-.4-.3-.7-1q-.2-.4-.5-.3l-.7-.5q-.8-1-1.8-1.4l-1-.8-.6-.3-2-.8q-.4-.2-.4 0l.4.3.1.5.4-.4.3.1h.2s.2.5.4.4v.5h.3v-.3l.2.1h.3l.3.4q.4 0 .7.2l.2.2q-.1.3-.2.2h-.4l-.1-.2v.3H55v.3l-.7-.1.1-.4h.3v.4h.2c.2-.7-.1-.5-.5-.6l-.5-.3-1.6-.2h-.6l-.2-.2v-.1l-1.4-.4a2 2 0 0 0-1.4-.3c-.5 0-.6-.4-1-.3h-.1l-.3-.1.2-.5q.4.2.8 0l.3.2h.2l.3-.1q0 .2.6.2l.5.1h.4q0 .3.3.3c.1-.1-.4-.7 0-.6l.1.4.2.2.4-.3.2.2-.4.2h.6v-.6l-.2-.1-1-.2h-.4l-.2-.3h-.5q0 .4-.3.3l-.1-.5.4-.3.3.1 1 .1.5.1.4.2.9.2q.5 0 .8.3h.6l.1.3.3-.1V28l-.4-.3-1-.5-1.1-.3-.3-.3v-.1l-.1-.3-.2.4h-.2l-.2-.2v-.2l-.6-.2q0 .3-.2.5V26h-.2v.2h-.2V26h.2l-.4-.1q-.1.2-.4.3l-.3.1.1-.5q-.3.2-.7.2l-.1-.4-.3.2-.2.1-.2-.2h-.3l-.4-.4.6-.2h.3l.2-.2h.3v.3l.2.2.7-.7q.3 0 .1.2-.2.1-.2.3.3.1.5-.2l.1.1.2-.3h.7l-1.1-.5-1 .3c-.2-.3-.3 0-.6 0h-.1l-1.2.2h-1.1l-1.4.6-.1.6h-.6l-.3.3V26H43l-.4.5.1.3h-.3l-.2.2-.6.4-.2-.2V27h-.2q-.1.3-.6.3l-.4.2-.1-.1a.1.1 0 0 0-.2 0v.6l-.6.4-.4.2q.4-.1 0-.3-.6 0-.7.6h-.8l-.1.6H37l-.6.1c-.3 0 0 .2 0 .2l-.2.4h.1l-.2.2H36l-.1-.2h-.3q-.2-.1-.3.1-.2.4-.2 1l-.3.1-.7.6-.1-.5-.3.3q0 .2-.2.3l-.4.1v.1l-.1.1-.2.3-.6.2v-.2q.1-.3-.1-.3v.6l-.3.5q.2 0 0 .4l-.2-.4-.2.1-.1.5q-.2.2-.2.5l-.2.2h-.2l-.1.5-.4-.1-.5.5.2-.8.2-.2-.5.3-.3.7.1.1v.1l-.3.5-.3.3-.5.1v-.2c-.3.1-.1.5-.4.6s0-.2-.2-.2v.4h.2l-.6.6-.3.3-.1.2-.2.1h-.4v.2l-.2.7-.2.2-.2-.8-.8.7q-.3.1-.3.5h-.4l-.1.5-.2.1h-.3q-.2.3-.2.7h-.6l-.4.6h-.3l-.2.5v-.3l-.2-.4-.1.3q-.2-.1-.2.1v.7H21l-.4.3-.5.3h-.2l-.4.5q-.1-.2-.2.1v.5H19v.7l-2 1.3-.2.1-.8.6-2 .5-.2-.1-.7-.5-.1-1s.4-.7.3-.9h.2c0-.3.5-.7.5-1v-.2l.3-.2h.4v-.2l.7-.6.2-.1.3-.7 1-.6.2-.4c.2-.3.3.1.5-.1l.3.3q.3-.2 0-.4V41h.3v-.3h.2l.1.3.1-.5.2-.2v.1l.6-.4.3-.7.4-.4 2.1-1.3q.3 0 .5-.3h.3l.2-.4v-.1q.3-.2.4-.6l.6-.4.3-.1v-.1l.3-.4q.3 0 .5-.2l.4.3q.2-.1 0-.4 0-.3.2-.4l.3-.4.3-.2v.4l.6-.4q0-.4.3-.7l.4-.4L29 32h.3v-.2l.4-.2.5-.4h.2v-.1l.3-.7 1-.5.2-.5c.2-.3.3.1.5-.1l.3.3q.3-.2 0-.4V29l.3-.4.3-.3.3-.2v.3l.6-.3q0-.4.3-.8l.3-.3 1.8-1 .3-.3h.1v-.1l.3-.2-.3.2.7-.4.1-.2 3.6-2.4 1.7-1.5.4-.7.7-.5.2-.4.4-.3.2-.5q.6-.2 1-.7v-.5c.2-.2.7-.4.5-.8l.6-.2.3-.5.6-.9.5-1c.3-.8.1-1.5.4-2.2v-1.1M2.4 45l-.2.3q0 .4-.3.6l.2-.8q.2-.5 0-.9.3-.4 0-1l.3-.6h.2l.2.2V42c0-.1.6-.3.4-.7l.4-.4q0 .4-.2.5-.2.4-.2.9l.1.2q-.2.3-.3 0v.5q0 .6-.4 1v.2l.2.3q-.3.2-.3.5m.9-1-.1 1.1v.1l-.2.3V45l-.2.1v.2q.2.3.1.7h.1a.4.4 0 0 1-.3.6V46l-.2-.6q.1-.6.3-.7.1-.8.7-1.2l.2-1 .4-.2q0 .4-.2.7l-.2.6.1.2h-.3zm.6.4c-.1.3.1 1-.4 1l.2-.5-.3-.1v-.5h.2l.3-.2v-.5l.2-.2v.7zm.6 1.9-.4.3V46h.1v-.9c.2-.2 0-.4.3-.3zm9.2 8.9v-.6q.3.1.1.7v.3h-.2zm4-20.1-.3.1s-.1.5-.4.4c0 .4-.5.4-.6.7l-.4.4v-.5l.8-.4v-.7l.3-.1.2-.3h.4zm-.1-.8.3-.5.2-.2.2.4zm1.7 3.7s-.3.4 0 .6l-.3.2v.1l-.3.3-.7.7.2-.3v-.4l.4-.4V38q.3 0 .4-.3 0-.2.3-.2zm5.8-3.9-.6.9v-.4l.1-.2h.2l.1-.6q-.2 0-.3.2l-.5.6.2-.4V34l.7-.8v.5l.2.1zm4.8-3.5q-.3.5-.6.5v.2l-.4.3-.1.2-.4.2-.5.1h-.2l-.2.1v.3l-.4.4-.3.7q-.1.2-.4.2c.2-.4.5-.4.5-.9h-.3l-.3.3v.5q-.4 0-.7.3c-.2-.2.2-.3.2-.4v-.4l.3-.4V32l2.9-2.7v.8l-.2.1v.2c-.3 0-.6.5-.3.4h.4s.2-.4.5-.3v-.9l.5.2v.5l.2-.2.2-.3q0 .6-.4.8m-.6-1.1v-.3h.2v.2zm.3-.2.4-.5v.3zm.5-1 .1.3zm0 1.1.2-.4h.3q.1.5-.4.4m4.5-3v.2l-.4.5-.3.6q-.1.2-.4.2.4-.3.4-.9h-.2l-.3.3v.5q-.4 0-.7.3c-.2-.2.2-.3.2-.4v-.4l.3-.4h.1v.1h.1q.2 0 .2-.2v-.2c.5.6-.3-.5.5 0l-.2-.3c.3.4 0-.2.2 0 .2.6.4 0 .5-.1h.1zm-2 .6v-.2l.1-.1h.1v.3zm.7-.6.1.2zm1.6-.1q0-.4.2 0zm.3-.1q0-.2 0 0m1.6-.9-.5.2q-.2.4-.5.6l-.1.1-.3.2v-.1l-.2-.8v.1c0-.2.2.2.2.2v-.2q.4.6.2.2c.1 0 .4.5.2 0 .4.4 0-1 .6-.5q.3-.6.6-.1zm8.2-12 .3.1.1-.5h.1q.1.6-.5.6zm-.6.2h.6c.1.2.6.4 0 .2.7.4-.2 0 0 .2.8.2-.6 0 0 .4l-.2-.1h-.1v-.5l-.4.1zM36 18.8v-.3q.4 0 .6-.3h.4l-.5.5h-.2q0 .3-.2.5v.1l-.3-.4zm.3 3.3.6-.4.5-.5v-.6l.2-.4h.3q.1-.4.5-.6l.5-.7.2.1.7-.7v-.9l.6.1V17l-.2.3-.2-.2-.4-.1-.3.3V17q-.3.3-.3.5c0 .1-.4.4-.3.7l-.4.3q.2.2.3 0h.3V18c.2-.2 0-.4.4-.6l.3-.1q-.1.4-.5.6 0 .4-.2.6v.2l-.4.3v.2h-.2l-.3.2q-.1 0 0 0v-.1l-.3-.2-.3.3q.3.4-.2.6l-.8-.4.2-.2v-.8h.3v.6l.3-.2v-.6l.3-.5h.5v.1c.2-.2.5 0 .6-.3v-.3l.2-.2q-.2 0-.5.3 0-.4.2-.6h.5l.3-.6q.5 0 .8-.5v-.3h.3c0-.3 1.7.3 1.8 0q.5.2.3.8l-.2-.1-1.2-.4-.4.2v.2h-.1v.3l-.1.3h.2v-.3c.4 0 1.4.3 1.6 0h.4l.4-.4q.2.2 0 .4l-.4.3.1.4.4-.3h.1l.4-.5q-.2-.4 0-.6l.2-.7v-.3q.6 0 1-.4c0 .2-.8.5 0 .8q-1.1-.2-.4.8-.7 0 0 .4-.7-.3-.5.3c.8.3-1.2 0-.5.8-.2-.1-1.3.8-1 .8q-.2.4-1 .6c0 .3.6 1 0 .3-.3 1-.7.6-.8 1-.2.9-1 .3-.7.8-.5-.4-.5 1.7-.8.3 0 .4 0 1-.2.4-.8.7.4 1.5-.7.6 0 1.5-1 .1-.5 1.5h-.3l.1-.5-.1-.3.2-.3-.3-.2q-.4.2-.5.6h-.4v.2h-.2l-.2.1.2.5.1-.4c.4.2.5-.3.9-.2l-.2.5v.1c-.2-.2-.3.7-.5-.1-.1 1.2-1.2.3-1 1.2-.7-.5-.2.6-.8.2 0-.3-.1.2.1.3.3.7-.4-.6-.1 0-.3-.3.2.5 0 .3s0 .1-.2.1c-.2-.6 0 .1-.2 0 .2-.4-.5-.4-.3-.3.2.8 0 .5-.3.1v-.2q-.2 0-.3.3l-.1-.2c.3.6-.3.2-.2 1h-.7V26l-.2.7h.2v.2c.3.1 0 0 0-.2v-.1l.2.2v.2l-.5-.2-.1.1V28l.2.1v.4l-.8.8v-.6l.3-.4-.6.6.2-.4-.1-.4c-.3-.1-.4.3-.7.2V27l-.2.2v.7c0 .2-.8 1-1 1.1h-.2v.3l-1.3.5-.4-.2-.4.2v.1l-.3.5v.5l-.5.4v-.5l-.3.2-.5.8v.7h-.2l.1.3-.3-.2-.1.1v.6l-.8.5q-.2-.2-.2 0v.2l-.3.2h-.1v-.3l.1-.3v-.3l-.1.2v-.7l-.2.1v.7l-1 1.1h-.2v.4H22v.2l-.2.6h-.2v.5c-.2 0-.4.4-.2.3l-2 2v-.3l.1-.8.2-.2c.2-.6.5-.7.8-1.2l.6-.7.1-.2.2-.2.2.2.1-.4c.4 0 .4-.6.6-.9l.5-.7.2-1c.8-.5.8-1.2 1.5-1.6l.6-1.2.3-.2q0-.2.2-.3l.2.2.1-.3v-.3l.3-.4h.3q0-.2.3-.2v-.8l-.4.3q0 .1-.2 0l.8-.9.2.2v-.6l.4-.4-.2.4q-.1.3.1.4l.5-.5-.1-.2 1.1-1 .3-.5c.4 0 0 .3 0 .5l-.3.6q-.1.2-.4.2.3.3.2.8l.3-.3h1.1l.2-.2.7-.3 1-.6.5-.2v-.1l1.8-1.1.4-.6h.4l.2-.4zM21.7 34v-.7l.4-.3v.4q0 .4-.4.5m5-6.2.1-.2zm0-1.4q0-.3.5-.2l-.2.2zm1.5-1.4c.1 0-.2.5-.4.6q0-.5.4-.6m1.4 0-.2.5q0-.3.2-.5m-.3.5v.2h-.2zm.4-2.3.2-.4v.4zm4-5.3.4.3-.8.1-.3-.2zm-3.2 1.8h.2v.2h-.3zm-.2.4h.5l.6-.4v-.4h.4l-.1-.2-.2-.1.6.3q0 .4-.2.6l-.8.8q.5.3.6-.3h.2l.3.2v-.8l.3-.2-.2-.3.5.2q0-.2.2-.3h.2c.1 0 .3-.4.6-.3l-.2.2c.4.4.4-.1.6-.2h.2q.1-.4.5-.4c.2.1 0 .4.2.5q.2-.2 0-.3l.1-.1.2-.3h.3l-.2.3-.2.4.1.1-.5.4-.5 1-.6.5-.2.5-.6 1.2-1.4 1q.1-.6.4-.8l.1-.5.5-.3h.1v-1l-.1.4h-.1v.4H32l.2-.2-.1-.1V21h-.3v.7l-.3.3v.4l-.1.3h-.2l.2-.7q-.2.4-.5.4.1.5-.4.7c-.3-.2 0-.5 0-.7h.1a.3.3 0 0 1 .2-.4v.2h.2l.2-.3h.2v-.2h.2V21q-.4 0-.5-.3h-.6l-.3.3h-.3v-.4q.4-.1.4-.6M29 22.5h.3v-.2h.4s.6-.5.5-.7h.4l.1-.2q0-.3.3-.4v.3q0 .2-.2.3l-.3.1v.2l-.2.1v.3l-.2.4h-.4l-.3.1q-.3.4-.7.4c-.2-.2.2-.6.3-.7m-.4 2h.1q0-.4.5-.7l-.2.6-.5.4zm-2.2-.7q0-.2.3-.2a.3.3 0 0 1-.2.4h-.1l-.4.3q0-.4.4-.5m-9.8 6.6q.4-.2.5-.5h.3c0-.4.2-.2.4-.3l.3-.4.3.1-.3.4-.3.3-.1.2q-.3.4-.7.2v.2c-.2 0 0 .5-.3.4v-.6m-1 1 .1-.3h.2v-.4h.3q0 .4-.2.4.1.5-.4.4v.2h-.2q.1.4-.4.7l-.3.1.1-.4q.2 0 .3-.2c-.1-.1-.6.2-.5-.2q.6 0 1-.2m-1-1.7v.6l-.1-.1-.3.1zm-.8.7h.2v.2h-.3zm0 1h.2q.3-.1.4-.5l.9-.6v.3q-.4 0-.6.4l-.2.4h-.1l-.3.2h-.5zm-.3 1 .8-.3-.5.4.4.2.1-.3q.2 0 0 .3-.1.4-.8.5l.1-.5zm.3 1.8 1.2-.6c0 .2.6-.1.7-.2v-.2h.1c.2 0 .3-.5.5-.4v-.4h.3q.1.6.4.1v-.3q.2 0 .2-.4l.2.3.1-.3.5-.6v-.1q.4 0 .4-.4l-.2-.1q-.1.4-.5.6l-.2.5v-.5l.3-.3q0-.3.2-.5h.1l.5-.4v.2h.3V30h-.2v-.3l.4-.2.6-.3.3-.2h.2l.3-.4h.3l-.1.4c-.3-.2-.4.2-.6.2-.5.1-.3.3-.4.4h-.3q-.1.6.1.9.3-.2.2-.5v-.3a.4.4 0 0 0 .5-.2v-.2l.4-.1h.3q.3-.2 0-.5l.4-.2v-.2H21v-.2l.5-.1v-.6l.1-.1.4.1h.2V27l.5.1.2-.3q.1.2.5.2l.2-.3h.3q.3-.6.8-.5l-.2.4.3.2q.1-.2.4-.2v-.3h.5l.1-.1v-.5q0-.2.3-.3l.2.3c-.1-.5.6-.5.5-1h.2V24l.2-.2q0 .4.5.4V24q0-.2-.2-.3h-.2q.4-.6.9-.5v.3q-.4.2-.3.6v.1q-.1.3-.5.2l-.2.3h.1q.2.2.1.5v.2h-.2q-.5.4-.9 1l.1.2H26v.2l.1.2h-.3v.2l-.4.3.7-.1v.4l-.6.2v.5H25v.2l-.4.5h-.4l-.5.3-.2.6-.7.5-.4.1v.2H22c0 .4-.6.5-.8.9v.1l-.5.4q0-.2.2-.3v-.6c0-.3.7-.7.6-1.2l.5-.4h.7v-.5l.5-.5-.3.1-.7.5h-.3l-.5.5-.5.3-.5.2-.2.4h-.4l-.2.8h-.2l-.1.3q0 .5-.2.8h-.4l.2-.7h.2s.1-.5 0-.4c-.3 0-.3.5-.5.6v.6l-.2.1v-.5c-.2.2 0 .6-.5.6l.2-.7.5-.4v-.3h-.3l-.3.5q-.2-.1-.2.4-.3 0-.5.2l-.2.3H17q-.3.1-.2.6l-.2.1H16v.4l-.5.2-.4.6v.3c0 .2-.5 0-.6.2h-.2l-.3-.3v.4l-.1.4q.1-.6-.3-.8l-.1.5h-.6l-.1.2v.5l-.4.4v.5-.4l-.2-.3-.4.2-.1.2v.1q-.1.5-.6.7l.3-.5c-.2-.2 0-.4-.3-.6l.3-.3.6-1 .2-.2-.1-.2.3-.2c.5.7 1-.1 1.4-.5m-3 19.6h.5q0 .3.3.3l-.1-.4q0-.4.2-.3v.4l.2.6h-.4c-.3 0-.4.6-.8.2l-.3.2-.1-.2.6-.2zm2.3-20.2-.3.4h-.6q.2-.3.5-.2zm-2 .8V34l.1-.4.4.1.3-.6h.9v.3h-.2l-.2.2q-.3-.2-.4 0l.2.1-.2.3v.4l-.3.3-.1-.4V34q-.3.1-.4.4l.2.6q-.2 0-.2.3l-.3.2v-.7zm-2 4 .4-.7.2.2.2-.2v-.6l.2.1.3.3-.1-.3q-.2 0-.3-.2h.7v-.3l.4.3-.2.3v-.2l-.4.1.2.5q-.1.2-.4.1c-.3 0-.6.6-.5.7L9 39zm.2 15.3.4.3.7-.2.1.2h-.2v.2l-.3.1.1.4h-.4l-.7-.3-.4-.3h-.3l-.2-.7q.2-.2.4.1h.2zM7 40.8l.2.2v-.5l.2-.2.3-.8.7-.3-.2.6v.6l-.4-.2v.4l-.3.4-.6.4zM6 56l.2-.3v.3zm.3 0v-.2h.2zm0 0 .1-.1h.1zm1.6.9.2-.2h.2c-.1.3-.1 0-.4.3zm.6.2.1-.2zm.2 0H9zm.1 0H9q0 .2 0 0zm.2.2.1-.2h.1zm.6.3v-.4zm3.7-1.1v-.2l-.1.1zl-.2.2c-.4.1 0-.5-.4-.4v.4l-.1-.2v.2l-.1-.2v.3h-.1v-.1l-.5.1c0-.4.2-.1 0-.4-.1 0-.4.5-.6.4 0 .6-.1-.2-.2 0v-.2l-.5.3v.1l-.3-.2v.4q-.3-.5-.5-.2-.3.4-.4-.1v-.1h-.2v.2-.1l-.1.1q-.5 0-.5-.4h-.1l-.2.1-.2-.1v-.3c-.1.2 0-.1-.2 0V56v.2h-.3v-.3l-.2.1q-.2-.3-.5-.3l-.2-.1v-.3l-.5-.1-.3.2.1-.4v.7l.1-.2h.1l.2.2-.2.3-.1-.1v-.1l-.4-.3v-1.2h-.2v-.6l.4.3.7.5v.1l.7.4v.3c.3-.3.6.2.8 0q.3 0 .2.3l.5.2.8-.2.3.1c.2-.2.4.1.6 0v.3c0 .1.7 0 .8.2l.3-.4.2-.2-.1.4v.2l.3.1h.5l.5-.5h.2v-.5s.3.6.3 0q.2.1 0 .4v.3h.1l.2.2c-.1 0-.2.4-.3.3zm.5 0 .1-.2h.1c0-.2-.1 0-.2-.3l.2-.2v.1l.1.2h.2s-.1.4-.3.3zm1-.4v-.2l.1-.3.1.8q0-.4-.3-.4zm1-1v.2h-.2v.2q-.2 0-.1-.3l-.4.2.1-.1.3-.1v-.4l.2-.3q.2.1.1.6m11-13.1v-.7l.3.3v.5l-.3.6v-.5q-.2-.2 0-.2m-7.4 8.3.2-.3v-1q0-.2.2 0v1.5h-.3zm.2 2v-.2h.1v-.7h.2l-.1-.3v-.3h.4l-.2.3c.2.2 0 .4.2.6l-.1.5zm1.5-1q-.1.4-.4.3c.2.3 0 0 0 0v.2l-.6.4.3-.2v-.7l.2-.2v.4l.4-.2v-.8l.1-.5.1.4zm.8-.4.2-.1v.2zm.5-.5.2-.2h.2v.1zm5.4-7.9-.6.6q0 .2-.3.2v.2h-.4l-.2.4-.2-.2c.3-.2 0-.4 0-.6l-.1.1-.1.9.3.3v.5l-.3-.3v.3H25q0 .6-.5.7v.7h-.2v.7h-.5v.7q0 .6-.4 1l-.2.7h-.1v.1l-.1.2v-.1l-.1.2-.3.2q-.2 0-.2.2l-.5.2-.3.3.1.2c0 .3-.3.1-.3.5l-.2-.2.2-.3-.1-1v-.2h-.2l-.2.2.4-.6.2.3-.2-1q-.2.1-.2.6h-.4v1.1l-.2.2h-.4l.1-.3H20v-.4l.2-.4q-.2-.8.4-.8l-.2.5.3-.1c.3 0 .2-.6.2-.8l.3-.3q.2.1 0 .2 0 .4.2.5l.1-1 .3-.5.1-.5.2.2v.5h-.2v1.5l.2-.1q0-.7.3-1.4l.2-1v-.5h.3V45h.2v.2h.3l-.1.6q-.5.1-.5.6v.7l.1-.4h.2l.1-.2-.1.7v.1q-.1 0 0 .4l-.2.4v-.5h-.3q-.3.3-.2.9l-.3.3v.6h.3V49q.2-.1.2-.4.3 0 .2.2.2.2.4-.2h.2v-.7l.3-.2-.4-.1v-.3h.2v-.9q.2-.1.2.1v.5q.5 0 .4-.5l-.1-.1V46l-.2-.2v-.4l.2-.1.1.5.2.3v-.9l.2.2.3-.1q-.2 0 0-.3l-.3-.6-.2-.3.1-.5q.4 0 .1.4h.3l.2.2.2-.3-.2-.3.2-.5q0-.4.2-.3v.7h.1l.1.4-.3.2.1.3q0 .4.3.3l-.2-.6q.2-.2.2-.5l.1-.1.1-1.4.2-.1.1.7.1-1.3v-.6l.2.1v1.8l.3.2.3-.3.2-.4v-.3l.3-.3v.5l.3-.8zm2.8.9-.3-.4v.4c-.3-.2 0-.2-.2-.4h.2l-.3-.3-.1-.3.2.2.3-.3.1-.1v.3-.1l-.1.5s.4.2.2.5M35 38v.1l-.2.7.1-1.1q-.3 0-.3.4l-.1.6v1l-.3.3-.2.4v.3l.5-.6v.4l-.2.1v.7l-.3.1v.1-.1q-.4-.6-.9-1l-.2.7-.2.2h-.1l-.2.5-.3.5h-.6l-.2.2-.2-.2-.3.2-.1-.5.4-.7h.1V41h.2l.2-.9V40l.2.4.3-.3c.2 0 0 .3.2.4l.2-.1v-.6l.4-.6v-.4q.3 0 .1.3l.2-.1c.3.1 0 .6.2.7.3.2.1-.3.3-.4V39l.2-.2.2.2.2-.6h-.6v-.6l.3.2.1-.1v-.3l.1-.8.1-.3q.3 0 .2.2l-.2.5q-.1.5.2.6v-.5h.1l.3.3h.2zm3.4-6 .4-.6v.2l.2-.2.2.3zm4.2-2.7h-.3v.3q-.6-.1-.5.5l-.3.5V30l-.4.2q.3.5 0 .8h-.5l.3-.2.1-.6-.2-.2c.2 0 0-.4 0-.3h-.3v.6q-.3 0-.2-.2l-.1-.2h-.3v.3h.2l-.2.4c.4.4-.1.5-.2.6v.4l-.3-.1V31h.5l-.2-.3-.5.2q.1.1 0 .2h-.4v-.4h.9V29h.2q0 .3.2.4h1.1v-.8l.4.2v-.3l.4.1-.1-.1.4-.2.1.5q.4-.2 0-.7l.5-.1-.1.5q0 .5-.2.7m1.4-1v1.5c-.5 0-.3-.4-.3-.8l-.4.2.1.3v.2h-.5l.3-.6v-.4l.3-.1v-.1h.3q-.2-.6.2-.8zm3 .7-.3.1c-.1-.2-.7 0-.8-.1v-.3l-.2.4h-1.2l-.3-.1v-.8l.1-.5h.3v-.2l.1-.1v.4l.4.4.1.3q.3 0 .5-.2a.4.4 0 0 0-.2-.5q.2-.1.3-.4l1.2.1-.1.3-.2.2v.4l.1.2h.2zm9.3 9.8-.2-.4h.2v.2h.2zm9 3 .1-.4.3.4v.4zM64 46l.8.8.3.1.2.3c-.3 0-.3-.4-.7-.3l.2.5q-.6-.2-.5-.8c-.1 0-.4-.4-.5-.3l.3.4-.2.2q0-.3-.2-.4v-.7zm2.4 2.9H66l-.4-.4h-.5l-.2-.5-.1.1-.5-.1-.5-.4c-.2 0-.3-.7-.7-.6l-.4-.7q.2 0 .3.2l.7.6h.2l.5.4 1.4.9h.3v.3q.3-.1.3.2m1 0c-.1.4-.3 0-.4.1l-.4.4V48h.3v.5h.2c0 .2.4 0 .3.3"/><path d="m28.6 26.9-.2.3c-.3.4-.6.3-.7.8l-.3.3c.2.1 0 .4.3.3l.3-.8h.2l.5-1h.1l-.1-.5zM24.2 29l.1-.4h-.2zm.6-1.1q.3 0 .3-.3c-.2-.1-.8.3-.7.4zm8-7.7h.5v-.8c-.5-.1 0 .4-.2.5h-.3l-.1-.1-.2.3zM15.3 34.4l.3-.4q-.4 0-.5.2v.7q.2-.2.2-.5m8.3-6.5.1-.3.3-.2q-.5-.4-.5.4l-.2.2zm-.3 1.2h.5l.1-.4h-.2zm-11 4.3.2.1v-.2zm12.5-5v.2h.3v-.2zm36.7 18.2-.1.1.1.1h.3zM17.5 57h-.1m44-11.3-.2-.2.2.4.4.2q0-.2-.3-.4m-.7.3.4.4v-.1zm-.2-.9v-.6h-.7l.1.2.2.3zM57 40.8l.2.2v-.2zm2 2.2.1.2h.3zm-6-6.8q0 .2.3.2l-.2-.6q-.2.3-.3 0-.2.1-.2.4zm3 3.4-.2-.2.3.4zm-1.4-11q.3 0 .4-.2V28l-.4.2zM10 58.2v.1"/></g><defs><clipPath id="a"><path fill="#fff" d="M1 0h76.7v59H1z"/></clipPath></defs></svg>