<svg xmlns="http://www.w3.org/2000/svg" id="Layer_1" data-name="Layer 1" viewBox="0 0 408.1 311.8"><defs><style>.cls-1{fill:#fbf6e6}</style></defs><path d="M57.7 213.8h6.6L79.8 246h-5.5l-4.2-8.8H51.3l-4.2 8.8h-5zm10.5 19.4-7.5-15.8-7.4 15.8zm30.4-19.4h5v28.1h19.2v4.2H98.6zm42.6 0h15.3c11.6 0 19.7 6.6 19.7 16.1s-8.1 16.1-19.8 16.1h-15.2zm30 16.1c0-7.3-5.7-12-14.7-12H146v24h10.4c9 0 14.7-4.5 14.7-12m20.5 0c0-9.6 8.3-16.8 20-16.8s20.3 7.2 20.3 16.8-8.4 16.9-20.2 16.9-20.1-7.4-20.1-17m35.3 0c0-7.5-6.2-12.6-15.2-12.6s-15.1 5.2-15.1 12.7 6.1 12.6 15.2 12.6 15-5 15-12.6m18.9-16.1h5.5l12.7 28 13.2-28h5.1L266.9 246h-6zm55.3 0h5V246h-5zm38.4 0h6.6l15.5 32.2H356l-4.2-8.8H333l-4.2 8.8h-5.1zm10.5 19.4-7.5-15.8-7.5 15.8zm-166.7 38c0-3.2 2.7-5.5 6.5-5.5q4.7.2 5.8 3.7l-2 .2c-.4-1.4-2-2.2-3.8-2.2-2.7 0-4.5 1.5-4.5 3.7s1.8 3.7 4.5 3.7q2.9 0 4-2.1l1.8.2c-.6 2.2-2.9 3.6-5.8 3.6-3.8 0-6.5-2.3-6.5-5.4m20.2 0c0-3.1 2.6-5.5 6.5-5.5s6.5 2.4 6.5 5.4-2.7 5.4-6.5 5.4-6.5-2.4-6.5-5.4m11 0c0-2.2-1.8-3.7-4.5-3.7s-4.5 1.5-4.5 3.7 1.7 3.7 4.5 3.7 4.5-1.4 4.5-3.7m10.9-5.1h2l6.4 7.5V266h2v10.3h-2.1l-6.3-7.6v7.6h-2zm18.5 0h2.2l3.9 8.5 4-8.5h2l-4.9 10.3h-2.4zm20.3 0h8.4v1.6h-6.4v2.7h5.6v1.6h-5.6v2.7h6.4v1.7h-8.4zm17 0h2.1l6.4 7.5V266h2v10.3h-2.1l-6.3-7.6v7.6h-2zm22.6 1.6H300V266h9.7v1.6h-3.9v8.7h-2zM318 266h2v10.3h-2zm11 5c0-3 2.7-5.4 6.5-5.4s6.5 2.4 6.5 5.4-2.7 5.4-6.5 5.4-6.5-2.4-6.5-5.4m11 0q-.1-3.5-4.5-3.7c-4.4-.2-4.5 1.5-4.5 3.7s1.7 3.7 4.5 3.7 4.5-1.4 4.5-3.7m10.9-5.1h2l6.4 7.5V266h2v10.3h-2l-6.4-7.6v7.6h-2zm-308.2-.3h4.8c2.2 0 4 1.2 4 3.1q-.1 2.3-2.7 2.9l3.5 4.4h-2.4l-3.3-4.3h-2v4.3h-2zm6.8 3.1q0-1.5-2-1.5h-2.8v3h2.7q2.1 0 2.1-1.5m11.3-3h8.4v1.6h-6.4v2.7h5.6v1.6h-5.6v2.7h6.4v1.7h-8.4zm16.3 7.1 1.8-.1q.2 1.8 3 1.8 2.4 0 2.5-1.4.1-1-1.7-1.4l-2.1-.3q-3.2-.4-3.2-3 .2-2.9 4.3-3c4.1-.1 4.2 1.2 4.4 3.2l-1.8.1q-.2-1.6-2.7-1.6-2.3 0-2.3 1.3 0 1 1.7 1.3l2.1.3q3.3.5 3.3 3-.1 3.1-4.6 3.2c-4.5.1-4.4-1.1-4.7-3.4m16.3-2c0-3 2.7-5.4 6.5-5.4s6.6 2.4 6.6 5.4-2.7 5.4-6.6 5.4-6.5-2.4-6.5-5.4m11 0q-.2-3.5-4.5-3.7c-4.3-.2-4.5 1.5-4.5 3.7s1.8 3.7 4.6 3.7 4.5-1.4 4.5-3.7m9-5.1h4.7c2.3 0 4 1.1 4 3q-.1 2.3-2.6 2.9l3.5 4.4h-2.5l-3.3-4.3h-1.9v4.3h-2zm6.8 3q0-1.5-2.1-1.5h-2.8v3h2.8q2 0 2-1.5m12.6-1.4h-3.9v-1.6h9.8v1.6h-3.9v8.7h-2zm29.9 7.8a6 6 0 0 1-3.7 1.1c-2.5 0-4.2-1.2-4.2-3q.1-2.2 2.6-2.9-1-.8-1-2 .2-2.7 4-2.9c3.8-.2 3.7 1.2 3.7 3l-1.9.2q0-1.5-1.8-1.5c-1.8 0-2 .5-2 1.3q0 .6.9 1.3l.3.4h6v1.5h-4.3l2.3 2q1 1 1.7 1l1-.2.4 1.4-1.6.3q-1.4 0-2.4-1m-3.7-.6q1.3 0 2.3-.6l-2.5-2.4q-1.9.3-2 1.5.2 1.5 2.2 1.5M294.9 173a24 24 0 0 0-6.9-1.2l-.7.4-.2-.4h-1.4l-.4.6c-.4 0-1.4-.6-1.8-.6s-.5.5-1 .5l-1.7-.3.2-.4-2.9-.3c0 1.4-1.1-.2-1.2-.2h-1.4q-.6-.3-.8-.7l-2.6-.3c-3.5-1-9.7-7.5-12-10.4-3.7-4.6-6.8-8-10.9-12.3-.5-.5-1.5-2-2-2.3s-.7.1-.9 0-.4-.9-.6-1.2-2.4-2.3-2.7-2.3c-.6-.2-1 .8-.6 1.4.1.2 1.4.7 1.7 1.3l.4 1.2c.2.2.8.1 1 .3.7.3 1.2 1 2 1.2l-.2 1.4q1.2.4 2.2 1.1c.6.6 1 1.8 1.6 2.3.8 1 2.5 1.6 3.5 2.7l1.4 2.2 2.2 2.4 1.8 3.4c.2.3 1.3 1 1.5 1.5-.8.4-1.9-1-2.3-1.5l-4.8-5.7c-.7-.8-2.6-2.4-3-3.3-.2-.3-.1-1-.4-1.2-.1-.2-1.1-.4-1.6-.9l-1.3-1.6c-2-2.1-4.9-4.2-7-6.2l-3.4-3.3-1-.7c-.5-.7.6-.7 1.2-.3s.5 1 1 1.3l1 .3c.7.3 1.6 2 1.8-.5q-1.6-1.3-3.6-2.5c-1-.7-2.4-1-3.4-1.6-.8-.6-5.6-1.7-6.8-1.9h-3l-1 1.2-2.2-.5c-3.1-.3-9.8 1.9-12.4 3.8q-1 .7-1.4 1.5l-2.1 1.4c-3.7 3-7.6 7.8-10.9 11.4q-1.7 1.4-3.2 3.2c-.7.9-1.2 2.2-1.8 3-.4.3-1.3.7-1.8 1.2-.8.6-1.3 1.7-1.8 2l-1.6 1-1.3 1.6c-1.1 1.3-3 2.8-4 4.1l-.7 1.5-1.1.6c-4.2 3.3-5.6 5-10.7 7.2-.6.3-3.4 2-3.6 2.4v.5l1 .4c0 .6-.6 1.7 0 2 .4.3 1.1 0 1.5.2.7.2.1.3 1.4.3.5 0 .7.2 1.3-.2l.2.7c.3.2 2-.5 2.7-.5q1 .1 1.4.3l2-.6c.3 0 .7.4 1.3.3.8-.2 1-1.3 1.1-1.3l.5.4c1.1-.3.3-1.7 1.3-2.2.4.4.1.8.4 1.4.7 1.3 1 .1 1.5-.3q.9-.6 1.8-1.5v.6c.2.1 1.1-.4 1.3-.6v-.5q.1.1.8 0c.7-.2.7-1 1.4-1.3v.7c1 .6 1.3-.5 1.5-.7h1c.8-.3.8-.8 1.3-1.3l1-.5v-1.7c.4.2 0 1.6.5 1.7.2 0 .8-.4.9-.6.1-.3-.2-.7 0-.9 0-.2.5-.2.7-.4.3-.2.4-.9.7-1 .3-.3.9-.2 1.1-.6.3.5-.3 1.7.7 1.6l.5-.2s-.2-2.3-.1-3c0-.7.5-1.5.7-2.2h.8l.4-1v2.4h.5c.1 0 2.4-2.1 2.5-2.4q.4-.7.5-1.4l.7.2c.3-1.1.1-2.2.5-3.3.3-1 1-1.4 1.2-2.3q.1-1 .4-1.8c.3-.5 1.7-1 .4-1.8-.8 0-1.2 2-1.6 2.6-.3.3-1.2.6-1.4.9-.4.6-.6 3-1.2 3.8s-1.6 1.5-2.2 2.2l-.3.6c-.2 0-.3-.7-.3-.8 0-.6.8-.8.9-1 .1-.5-.3-1.2-.2-1.6.1-.2.6-.3.7-.6l.2-1.6c.4-1.3 1.7-1.5 2.1-2.3l.2-1.4c0-.3 1.7-3.1 2-3l.1.8c.2.1 1.4-.7 1.4-.8l.1-1.2c.1-.3.9-2.4 1.2-1.7l.3.6c1.4-.3.8-1.4 1.2-2 .1-.2 1.2-.7 1.6-1l.4-.6q.4-.2 1 0c.4 0 .3-.6.8-.8l1.7-.2 1.2-.5c.7 0 .8 2.1 2 1.2V149c.5 0 2.7.3 2.6.8-.9.6-1.1 1.6-1.7 2.4l.3-1.4c-.4 0-1.2 0-1.4.4-.3.4-.6 2.3-.8 3-.5 1.3-1.2 2-2.1 3l.4-2c-1.1-.1-1.2 1-1.8 1.6-.8 1-2 2-2 3.5l-.7.2.1.8c1.8.1 1.7-1.9 2.5-3l1.1-1 .2.8c-.6.4-1.2.4-1 1.3l3.6-1.3q0-.4-.3-.7c-.5-.2-.8.4-.8-.1 1-.2.8-1 1.1-1.3l1.2-.5c1.5-1 1.4-2.2 1.8-3.6l1.2-2.3c.6-.4 1.6.1 1.8.8h2c.5 1.7 1.1-.3 2.2.6.2.2-.7 1.5-.8 1.8v.7l-.8.7-.3 2.2c0 .3-1.2 1.4-.8 2.2q.6.3 1-.1c.5-.5 0-1.2.7-1.1 0 .4-.7 1.8-.1 2s.7-.6 1-.7h.7q.3-.2.4-.6l1-.6c.3-.5.6-2.7.8-2.9.5 0 .6.7 1 1 .4.2 1 .2 1.3.8-.2 1-.8.8-1.5 1.1v1.9c.1.2 1-.9 1.2-1l.7-.2c.2-.1.3-1.6 1.3-1.1.4.2 2.6 3 3.2 3.7l4.1 4c.8.7 5.6 6.1 6 6l.6-.2 3.5 3.2c.4.2.2 1.2.3 1.3 0 0 .7 0 1.1.3l1.4 1.5c.2.3.8.5.9.7l.1 1.3c.2.3 2 1.3 2.4 1.7l.8.9q1-.2.8-1.3l.8.4c.2.2-.4.3-.6.6-.7.9.9 1.1 1.4 1.5q.2.6.7 1c.9.2 1.3-.6 1.8.5l1-.7c.3 0 .3.8 1.1.5v-.7h.6l.2 1.4c.3.3.8 0 1.1 0q.4.4.8.5c.4.1.5-.3.8-.4l2.7-.5.2-1.4c1 .3 1.5-.4 2.4-.5-.2 1-2.5.8-2 1.8.6 1.1 2-.6 2.2-.5.2.4-.4.3-.4.4-.2 1.2 1.2 0 1.8.5l.2-1.3c.6-.4 1.3.3 1.7-.4.3.5-1 1.2 0 1.3.8.1 1-.6 1.6-.7-1-1.4-.1-1.7 1.3-1.9-.2.8-1.6 1-.7 1.9.6-.5 1.6-.4 2.1-.7l.7-.8c.6-.2 2.3.2 2.8-.2.3-.3-.1-1 1.1-.7v-1.3q.4.9 1.3.5c.6-.1.5-.7.6-.8l1-.1c.6-.2 1.2-1 1.3-1 .4-.2 1.3.1 1.7-.2.1-.1.6-1.2 1-1.4l-.5-.7c.4-.7 1.2-.6 1.6-1l1.5-1.8c0-.1.3-.1 0-.3" class="cls-1"/><path d="M207.5 161.7c.2-1.5 2.4-2.4 2.8-3.7.6-1.8.2-4.4 1-6.4-2.2.4-.8 2.4-2.5 3.3l.2 1.3h-.6l.1-1.3-.5-.2-.2.2c-.7 1.4.1 3.5-.5 4.8l-.7 1c-.5.5-.3-.8-.7-.9s-1.6 2.3-1.8 2.7c-.3.8-.4 2.2-.6 2.7-.3.4-1 .4-.7 1.2h1.2l.8-3c.3.3 0 .6.8.4l2.5-1.4q.8-1.1-.6-.7m12.4-8.9c.1-.5 1-1 .1-1.9-1.2.6-.7 2.2-1.2 3.3l-1.3 1.8c-.3.5-.8 2-1 2.6q-.1.3.1.4l1.3.1c0-.8.3-2.3.7-3q.7-.9 1.3-1.3z" class="cls-1"/><path d="M221.1 156.6c.2-.3-.1-1 0-1.4l.2-1c0-.2-.5-1-.3-1.5-1.2 0-.7 1-.7 1.6q0 .4-.4.5v2zm.3 2.7 1-3c-1.3 0-1 1.4-1.6 2.1-.2.4-1.5 1-.6 1.6l1.9.6c.5 0 .5-1 .2-1.4z" class="cls-1"/><path d="M305 153.7h-1c-.2 0 0-.4-.4-.4-.7 0-.6.5-1 .7-.6.6-1-.1-1.4-.1h-2c-.4 0-.4 1-1.6.5l-.5-.5-1 .3v-1c-.6-.1-1.2.2-1.8 0q-.5-.1-.8-.4h-1.2l-1-1c-.4-.2-2.8-1.6-2.9-1.8l-.1-1.3-.7-1.3c-.5-.9-.7-2.7-2-2.5v1c-1-1-.8-2.5-1.1-3.8-.3-.9-.7-.6-1-1l-1-.8-.4.7c-.9-1.3-1.4-3.2-2.6-4.2a7 7 0 0 0-1.4-3.9l-1-.5c-.3-.6-.8-3.8-1.2-4.1-1 0-1 .8-.8 1.6 0 .5.8 2.6 1 3 .2.5 1.2 1.3 1.4 2l.2 1.4c.2.5 1.2 1.2 1.4 2l.6 2.7.2 1.3q.2.4-.1.6c0-1-.6-.8-.8-1l-1-2h-.6v-1.2h-.6c.3-.8-.1-1.7-.2-2.5h-1l-.2-1.5-1 .2c0-.1 0-2-.2-2.5-.1-.4-.6-.4-.7-1-.2-1.4.3-4.4.2-6l-1-3c-.2-.2-.6-.1-.9-.5s-.5-1.5-.8-2l-1.1-1.8-1.6.2q-1.8-1.8-3.5-3.8c-.8-1-1.6-3.4-3.1-2.8q0-.6-.2-1c-1.6-2.6-6.9-4.7-9.3-6.6h-1c.3-1.4-1.3-1.1-1.9-1.4q0-.2-.6-.8c-1-.5-2.8-.8-4-1.3-1-.5-.4-.6-1.7-.6-.1 0-1-.5-1.7-.6q-1.9-.2-3.9-.8c-1.6-.5-2.7-1.3-4.6-.9-.5 0-1.2.6-1.4.6l-.7-.3-1.6.5c-1.7.3-4.4.1-5.9.6l-3 1.3c-.6.6-.2 1.1-.4 1.4-.2.4-1.7-.2-2.3.1-.3.2-.6 1-1 1.2l-.8.2-.2.6-1.9 1c-.7.1-.6-1-1.3-.9-.3.1-.4.6-.5.7-.4.2-2.2.3-2.5.6l-.5 1.1c-.2.3-1.7 1.3-2 1.2-.3 0-.4-.5-1-.4-.7.2-.9 1-1.2 1.5l-2 .5-.1 1.2c-.7.2-2.5 0-2.7.9v1c-.3.8-1.2 0-1.6 0-1.4-.1-1.1 1.5-1.7 2.3-.1.3-1.9 1.6-2.1 1.6l-.6-.3c-.8-.1-.7.7-1 1s-1 .1-1.2.3c-.4.2-.9 2.3-2 1.6l-.3-.9h-.5c-.4.4 0 1 0 1.3l-.7 1.5c-.2.2-.6 0-.9.3s-.5 2-1 2.5l-.8.4c-.2.2-.2 1-.3 1s-.5-.3-.7-.2c-.4 0-.7 1-1 1.1l-1 .2c-.6.3-1.8 3.8-3.7 2.5-.2 1.5-1.3 2-2.2 3-.4.4-.8 1.3-1.3 1.6q-.8.1-1.4.6l-.5 2c-.5.6-.4-1.6-1-1.4-.3.7-2.5 1.8-2.7 2v1c-1.6-.5-1.2 1-1.5 1.4-.2.2-.8 0-1 .2-.3.3-.3 1-.9 1.5-.3.2-1 0-1.4.3s-.3.9-.8 1.1c-.5.4-1.1 0-1 1.1-.4 0-.4-1.2-.5-1.3-1.8-.1-1.3 2.4-1.5 2.6l-.8.2-1.4 1.2q-.7.4-1.5.6c-.3.2-.5.9-1.3.9v1.7h-.8c.3 1.5-.4 1.8-1.5 2.6-1.3 1-5 3.7-6.2 4.2-.8.3-4.2 1.2-4.9 1.1-.6 0-2-1.4-2.2-2-.3-1.5 0-2.3.6-3.5.4-.8 1.7-2.1 2-2.8l.2-.9c.4-.7 1.5-.3 1.6-.4l.1-.6c.8-.9 2-1.5 2.7-2.5l.5-1c.8-.8 2.6-.5 2.5-2.3 1 .1 1.5-.3 2.6.2l-.2-1 .8-.6.5.5c.5-.3.2-1 .3-1.2s1.5-.5 1.8-.9c.6-.6.7-2 1.4-2.8.8-.9 5.6-3.4 7-4.2l1.3-.5c.7-.5 1.6-3 2-3.2.7-.5 2.2.3 2-1.8 1.1-.5 2.3.7 3-.3-.9-1.2.7-1.9 1.3-2.8.3 1 1.3.5 1.8 0s1-1.8 1.5-2.5a16 16 0 0 1 3.4-2.4l1 .1c-.2-1.1.6-1.2 1.4-1.5.4-.3.4-.8 1.2-.5-.2-.8.5-1 .7-1.4l.1-1h.5l.4-.5c.3-.2 1 0 1.5-.5.5-.3.3-1 .8-1.3l.8.1c.3-1.2.8.4 1.3.1s.1-.9.2-1.2c0-.3 1.4-1.4 1.7-1.8l.4.6c1.7-.5 1.7-2.8 2.7-3.7.5-.4 1.5-.7 2.2-1.1 5.9-3.6 13.6-8.8 18.8-13.3 1-.8 1-1.4 1.6-2.1.4-.5 1.7-1 2-1.6q.4-.7.4-1c0-.1.7-.2 1.1-.8.3-.4.2-.9.5-1.2s1.2-.6 1.6-1c1-1 .7-1.7 1.1-2.4s1.6-.5 1.3-1.7c.3-.1.1.3.2.3h.2c.2 0 1.8-1.7 1.8-1.8q2.4-4.2 3.3-9v-.8a34 34 0 0 0-.3-10.9c-1-4.7-2.5-7-5.4-10a39 39 0 0 0-15-8.7l-1-.1q-.7 0-1.3-.2-.5-.1-1-.5l-1.3-.6c-5.6-1.7-11.4-.5-16.5.5a48 48 0 0 0-17 7.2l-1.2.7c-7 4-14.4 14.6-17 21.8l-1.1 3.1a27 27 0 0 1-6 11.3q-1.4 1.5-2.5 3.2l-1.9 2.3-2 2c-2 1.8-4.6 2.7-4 5.6 0 .4.7 1.6 1 1.7.6.2 1.6-.6 2.3-1.2l.5-.4.5-.2c.4-.2.7-.3.6-1.5h.2c1.2 0 2-.8 3-1.5l.7-.6 9-5.8.9-.4c.9-.3 2.1-.7 2.6-1q1.6-1 3-2.2.9-1 1.9-1.6.7-.5 1.5-.6l1.7-.7v-1.2l4.7-.5c.3-.2 1.5 0 1.8-.1l1.6-.8 2-.7q2.3-.6 4.2-2l1.9-.9c1.4-.5 3-1.1 3.1-2.5V69h1.2l.2-1.4-.6-.2q-.2 1-.9 1l-.5.2-1 .9h-.1l-1.5 1-2.4.5-2.8.4-3.1.7v-1.7c.2-.4 1-2.5.8-2.7h-.4c-.6.3-.9 2.3-1.2 3.2l-.2.6-.6.7-1.4.3-2-.3-2 .5c-.3 0-1.3 0-2.2-.4l.4-.8q.8-1.3.5-2.7l.4-.8q.5-.1.6-.7l.4-.8q0-.3-.4-.3h-.2v-1.1l-.2-1-.4-1-1.5 3.4V69l-.7 2 .6 4.6-2-2 .7-5.7 1.4-4.6.9-2.5 1.6-1.2.3-.9 1-4.1 2.7-3.3.4-.2q1-.5 1-1.5l.2-.2.9.3q0-1.6.4-2c.2-.1 3.7-1.5 4-1.5q.4 0 1 .4.3.3.7.3l.1-.2.1-.3.5-.2q.6-.1 1-1l1.3.3c.5-1 1.1-1 1.9-1h.9l.5-.5.7-.5c1-.3 4.7-.7 5.8-.7h.1q1 0 2 .4 1.6.5 3 .3l-2-1.4h.2c.5 0 2.3 0 3.4.5q.5.2.5.4t-.6.3q-.4.4-.2.6.4.5 1.8.6.6 0 1 .2c1.5.4 4.2 1.4 5.6 2.3q.4.2.7.6l.6.5.5.1q.3 0 .5.2v.5l.2.8q.4.6 1 .7.2-.2.1-.7c1 .2.8.8.6 1.3l-.1.6c0 1.5 0 2.4 1 3.6l.1.1-.3 1.4c-.3 0-.3-1.5-.7-1.2 0 0-.6 2.7-.5 4v.4l.2.8.2.9q0 .3-.5.3l-.4.3-.3.6q0 .4-.3.7l-.9.3-.6.4-.3.2-.4.3c-.5.6-.3 1.3-.7 1.7-.5.7-2.9.7-3.1 2.3l.5.6c-.8.3-.7 1.5-1 1.8-.1.3-1.2.5-1.4.8q-.2.5 0 .7l-1 .4-2.2 1.5.1.7c-1.2-.5-1.2.7-1.7 1.1q-.4.2-.8 0l-.5.9c-.5.5-2.7 1.1-2.6 1.7l.3.7q-1.1-.1-2.1.3l-.8.7c-1 .6-2 .5-1.4 2-1-.7-1.9 0-2.7.6l-.5.7q-.4 0-.9.3c-.3 0-.9 1-1.4 1.2q-.7.3-1.7.3l-.2.7h-2c.4 1 .4 1-.4 1.6-1.5 1.2-1.8.8-3.4 1.1-3 .5-1.4 1-2 2.4-.3.3-1.9.8-2 1.2-.3.3-.1.9-.2 1h-.7l-.3.5c-.5.1-1.2-.2-1.9.1-.3.1-.7 1-1.3 1.3q-.8 0-1.4.2l-.8.8c-1.5 1-3.6.7-4.6 1.2l-.6.7-1.3.8c-.2.4.2.7 0 1-.9.7-1.6 0-2.4.6s-.3.4-1 .7c-1.4.8-1.1 2.3-2 2.8-.7.3-.6-.1-1-.3-.8-.2-1 .5-1.5.8-.5.2-1.7.2-2 .8 0 .3.3.6-.2 1s-1.2.2-1.5.4c-.2.2-.3 1-.6 1.3s-1.6.5-2 .8v.7c-.4.8-1.4.4-2 .8-.7.3-2 2-3 2.3-.4.2-1.6.2-1.8.4s-.1.8-.3 1c0 .1-.5.1-.6.3-.2.1-.7 1.2-1 1.4l-1 .3q-.4.2-.7 1c-.5.4-1 .1-1.4.4q-.5.6-.6 1c-.2.2-1 .4-1.4.8q-.4.4-.6.9l-.8.3v1l-1 .4c-1.3 1.4-2.5 3.3-3.7 4.7-.7.8-2 1.3-2.8 2.2l-1.2 2.1c-1.3 1.7-2.9 3.2-3.6 5.3l-.4-.5q-1.4.1-1.7 1.3c-.2.7.4.7-.8 1.2l.2 1.5q-.7-.3-1.5.1l-2.8 6.6c-.3.4-.8.4-1 1-.3 1-.7 6.4-.7 7.7a34 34 0 0 0 3.1 12.3l.9.3 2.1 2.6c.5.8 0 1.8.4 2.5.2.4 1.1.8 1.5 1.1 1.8 1.7 3.8 4 5.8 5.4l.6.2 4.2 3.5c.1 0 2.3 1 2.8.7.3-.2.5-.7.5-.7h.6q.8-.2 1.7 0c.4 0 .2 1 1.2.8.8 0 .7-1 1-1.1.7-.4 1.6 0 2.2.2l.4-.1.2.6c.9 1.3 1.2-.4 1.6-.4l.8.3c.5 0 .5-.9.5-.9s.6.3 1 .2l.6-.5c.4 0 1 .4 1.4-.4 1 1.4 1.7 1.7 3 .4l.2-2c1.7 1.5 3 1.5 3.3-1l.4.7c.6.4 1.4-1.6 1.3-2.1l.6.7c.7-.4 2-.6 2.3-1.3.3-.4.2-1 .6-1.3.6.7 1.6.2 2.2-.4l.5-.8c.5-.3 2-.1 1.8-1.5h.8c.7-.2 4.9-4.1 5.6-4.7q.9-.9 1.1-1.7c.6-1 2-1.1 1.3-2.6.4-.4 1 1 2 0 .6-.5.2-1.3.6-1.8.2-.3 1-.5 1.3-.8l.5-.7c.3-.1 1.1 0 1.2-.2.2-.3 0-1.1.5-1.6.7-.6 1 .3 1.6 0l1.3-1c.2-.4 0-.9.3-1.2s1.4-.5 1.7-.9q.2-.5.2-1.2c0-.4.5-.7.1-1.4q.6.5 1.3.3c.4-1.1 2-1.9 2.5-3 .3-.8 0-1.7.4-2.4.6.3.8.7 1.4.2.8-.7 2.3-3.7 3-4q.4.1.8 0 .6-.7.1-1.4c.9.4 1.2.5 2-.1l-.1-.8.4-.1q.9 1.5 1.5-.2l-.3-1.1c1 1 2.8-.2 4-.6q-.2-1 .7-1.8c.2-.2.8 0 1.2-.4v-.7q.5-.1.8-1l.3-2.3c.2 0 .5 2.2 1.8.7.5-.4.2-.9.4-1l.5-.1c.3-.4.4-1.4.6-1.5l1.2-.3s.2-1.2.8-1.4l.1.9 1.9-.3c.4-.3-.3-.6-.2-.9 0-.1.7-.6.8-1 .3-.4.4-1.4.6-1.6h1c.4 0 .2-.4.5-.4l.3.9c1.9-1.4 5-2.8 7-4l2.3-1.4.9-.2.4-.8c.5-.3 2.6 0 3.3 0l.3 1 .6.2c.4 0 .3-.8.3-1l1.4.5c.4 0 .8-.5 1-.4.4.1.4.9 1.2 1 1 0 .7-.5.8-.6.4-.3.4.4.7.5.5.3 1.7.4 2.4.7l3.4 1.4c.5.2 1.3 1 1.8.8.3 0 .2-.5.5-.5 0 .4-.3.8-.1 1 0 .2 1.7 1.7 2 1.8q4.8 3.5 9.2 7.5c.5.5.7 1.5 1.7 1.4l.6-1.8c.7.4 0 .8 0 1.2s.7 1 .7 1.5c.1.4-.4.5 0 1.2s1.2-.8 1.2.1c0 .3-.3.5 0 .9q.1.3.6.5c.5.6 1.6 2.6 2.3 2.7h.8c-.8 1.2.9 1.5 1 1.9.3.4.2 1.3.5 1.9l.6.5v.5l1 1.6c.3.3.6 0 .9.4.5.6.2 1.4.5 2l1.7 2c.4.4 1 .3 1.4.6.5.5 2.9 3.5 3.3 3.5h.7c.7.3.8.9 1.9.5-.2.8.4.8.6 1.1.3.4.2.9.8 1l1.3-.4v.7h1c.6-.1.3-.5.7-.6-.2 1.5.4 1 1.1 1.2.4 0 .6.7 1 .5q.1-.8.8-1c-.2.9.9 1 .9 1 0 .1-.4.7 0 .9 1.7-.3 1-.5 1.3-1.3q.4-.4 1-.3c-.2 1.1 1 1.7 1.4.7.3-.4-.4-1 .2-1l.3 1.2h.9v.9c.4 0 1.1.1 1.3-.3-.2-2 .3-1.2 1-1.6l.5-.7c.7.7-.6 1.1-1.1 1.1v.7c.6.4 1.6 0 2 0 .2 0 .2.7.6.6q.4 0 .4-.5l2.4-.2c.3 0 .6.5 1.2.3l.3-.4c.4-.3.9 0 .9-.9q1.2.5 2.2-.2l.5-.5.8.2 1.8-.6c.4-.2.5-.8 1.2-.7v-1c1 .3 2.8 0 2.4-1.4 1.7 1.2 1.2-1.4 2-1.7.3-.1.8.3 1-.2s-.5-1.7-1-1.9ZM160.7 77.5c-.5 2.1-.8 3.3-3.1 4.2l-.1-.1q-.3-1.4.7-2.2l.6-.9.2-1q.1-1.3 1-1.8v-.1l-.3 1.8 1-.2zM201.9 44v-.5l.3.3zm9.5 3.8q-2.3-1.5-5-2.3l-4-1.6v-.7h.2q1 0 1.6.6l.6.3 1.6.5q1.3.4 2.5 1s2.5 1.2 2.7 2z" class="cls-1"/><path d="M192.4 63.9c1.6 0 2.4-1.6 3-3l.4-.8.1-.2h-.6q-.6 0-.8.4l-.2.2-.7.7c-.8.7-1.6 1.3-1.4 2.5v.2zm-4 3.7q1.4-.2 2-1.4.3 0 .4-.3l.3-.2q.3 0 .4-.3c.6-.7 0-1.7-.5-2l-.3-.2h-.2v.1c0 .9-.7 1.4-1.2 2q-1.2.8-1.3 2v.2h.4m-15.7-6.1c-.4 0-1 .9-1.5 1.6l-.4 1q.6.1 1-.2.9-1 1-2.4m3.4.1c.4-.3.9-.8.7-1l-.2-.1h-.2q-.7 0-.9 1l.1.6.2 1.1q-.2.5-.6.8l-.4.7q0 .2.5.4h.3c.2 0 .4-.7.5-1.2q.1-.8.4-1v-.5l-.8-.2q-.1-.2.4-.6m-6.3 1.6c.5-1.2 1-2.3-.4-3.4l-.2 2.3c-.3 2.1-.7 4.4.5 5.9l.8-3.1-1.4.7v-.2q0-1.1.7-2.2m5.4-.6h-1.1q-.5.4-.6 1c0 .7 0 0 0 0q0 .7-.4 1t-.9.3-.7.2v1c2-.3 2.8-1.8 3.7-3.5" class="cls-1"/></svg>