<svg xmlns="http://www.w3.org/2000/svg" width="20" height="20" fill="none" viewBox="0 0 20 20"><path stroke="#fbf6e6" stroke-linecap="round" stroke-linejoin="round" stroke-opacity=".6" stroke-width="1.166" d="M4.999 18.33V3.332a1.666 1.666 0 0 1 1.666-1.667h6.666a1.666 1.666 0 0 1 1.666 1.667v14.996z"/><path stroke="#fbf6e6" stroke-linecap="round" stroke-linejoin="round" stroke-opacity=".6" stroke-width="1.166" d="M4.999 9.998H3.333a1.666 1.666 0 0 0-1.667 1.666v4.999a1.666 1.666 0 0 0 1.667 1.666h1.666M14.997 7.498h1.666a1.666 1.666 0 0 1 1.666 1.667v7.498a1.666 1.666 0 0 1-1.666 1.666h-1.666M8.332 4.999h3.332M8.332 8.332h3.332M8.332 11.664h3.332M8.332 14.997h3.332"/></svg>