<svg xmlns="http://www.w3.org/2000/svg" width="20" height="20" fill="none" viewBox="0 0 20 20"><path stroke="#fbf6e6" stroke-linecap="round" stroke-linejoin="round" stroke-width="1.166" d="M12.497 17.496v-6.665a.833.833 0 0 0-.833-.833H8.331a.833.833 0 0 0-.833.833v6.665"/><path stroke="#fbf6e6" stroke-linecap="round" stroke-linejoin="round" stroke-width="1.166" d="M2.5 8.332a1.67 1.67 0 0 1 .59-1.274L8.922 2.06a1.666 1.666 0 0 1 2.151 0l5.833 4.998a1.67 1.67 0 0 1 .59 1.274v7.498a1.666 1.666 0 0 1-1.666 1.666H4.166A1.666 1.666 0 0 1 2.5 15.83z"/></svg>