<svg xmlns="http://www.w3.org/2000/svg" width="18" height="18" fill="none" viewBox="0 0 18 18"><path stroke="#c5a14a" stroke-linecap="round" stroke-linejoin="round" stroke-width="1.049" d="M16.482 12.676v2.248a1.5 1.5 0 0 1-1.633 1.498 14.8 14.8 0 0 1-6.466-2.3 14.6 14.6 0 0 1-4.495-4.495 14.8 14.8 0 0 1-2.3-6.495A1.5 1.5 0 0 1 3.08 1.498h2.248a1.5 1.5 0 0 1 1.498 1.289c.095.72.27 1.425.525 2.105a1.5 1.5 0 0 1-.338 1.58l-.951.952a12 12 0 0 0 4.495 4.495l.952-.951a1.5 1.5 0 0 1 1.58-.337c.68.253 1.386.43 2.106.524a1.497 1.497 0 0 1 1.288 1.521"/></svg>