<svg xmlns="http://www.w3.org/2000/svg" width="20" height="20" fill="none" viewBox="0 0 20 20"><path stroke="#fbf6e6" stroke-linecap="round" stroke-linejoin="round" stroke-opacity=".6" stroke-width="1.166" d="M8.279 12.914a1.67 1.67 0 0 0-1.197-1.197L1.97 10.399a.416.416 0 0 1 0-.802l5.112-1.319a1.67 1.67 0 0 0 1.197-1.196L9.597 1.97a.417.417 0 0 1 .802 0l1.318 5.112a1.67 1.67 0 0 0 1.197 1.197l5.111 1.317a.416.416 0 0 1 0 .803l-5.111 1.318a1.67 1.67 0 0 0-1.197 1.197l-1.319 5.111a.417.417 0 0 1-.802 0zM16.663 2.5v3.332M18.33 4.166h-3.333M3.333 14.164v1.666M4.166 14.997H2.5"/></svg>