<svg xmlns="http://www.w3.org/2000/svg" width="20" height="20" fill="none" viewBox="0 0 20 20"><path stroke="#fbf6e6" stroke-linecap="round" stroke-linejoin="round" stroke-opacity=".6" stroke-width="1.166" d="M7.498 2.5H3.333a.833.833 0 0 0-.833.833v4.165c0 .46.373.834.833.834h4.165c.46 0 .834-.373.834-.834V3.333a.833.833 0 0 0-.834-.833M16.663 2.5h-4.166a.833.833 0 0 0-.833.833v4.165c0 .46.373.834.833.834h4.166c.46 0 .833-.373.833-.834V3.333a.833.833 0 0 0-.833-.833M16.663 11.664h-4.166a.833.833 0 0 0-.833.833v4.166c0 .46.373.833.833.833h4.166c.46 0 .833-.373.833-.833v-4.166a.833.833 0 0 0-.833-.833M7.498 11.664H3.333a.833.833 0 0 0-.833.833v4.166c0 .46.373.833.833.833h4.165c.46 0 .834-.373.834-.833v-4.166a.833.833 0 0 0-.834-.833"/></svg>